HIERARCHY
ROOT Root
{
  OFFSET 0.0 0.0 0.0
  CHANNELS 6 Xposition Yposition Zposition Zrotation Yrotation Xrotation
  JOINT Hips
  {
    OFFSET 0.0 100.0 0.0
    CHANNELS 6 Xposition Yposition Zposition Zrotation Yrotation Xrotation
    JOINT Spine1
    {
      OFFSET 5.003913 -0.037094 -0.013727
      CHANNELS 3 Zrotation Yrotation Xrotation
      JOINT Spine2
      {
        OFFSET 7.125363 -1e-06 0.0
        CHANNELS 3 Zrotation Yrotation Xrotation
        JOINT Chest
        {
          OFFSET 7.594027 1e-06 0.0
          CHANNELS 3 Zrotation Yrotation Xrotation
          JOINT Neck1
          {
            OFFSET 26.313086 -0.460272 -0.181672
            CHANNELS 3 Zrotation Yrotation Xrotation
            JOINT Neck2
            {
              OFFSET 8.045911 0.0 0.0
              CHANNELS 3 Zrotation Yrotation Xrotation
              JOINT Head
              {
                OFFSET 6.432774 0.0 0.0
                CHANNELS 3 Zrotation Yrotation Xrotation
                JOINT HeadEnd
                {
                  OFFSET 16.169773 0.06451 0.00362
                  CHANNELS 3 Zrotation Yrotation Xrotation
                }
                JOINT Jaw
                {
                  OFFSET 0.108741 3.12938 0.002639
                  CHANNELS 3 Zrotation Yrotation Xrotation
                }
                JOINT LeftEye
                {
                  OFFSET 4.45173 8.166359 3.206392
                  CHANNELS 3 Zrotation Yrotation Xrotation
                }
                JOINT RightEye
                {
                  OFFSET 4.436895 8.135758 -3.222429
                  CHANNELS 3 Zrotation Yrotation Xrotation
                }
              }
            }
          }
          JOINT LeftShoulder
          {
            OFFSET 23.218927 5.195579 1.621656
            CHANNELS 3 Zrotation Yrotation Xrotation
            JOINT LeftArm
            {
              OFFSET 15.902118 2e-06 -2e-06
              CHANNELS 3 Zrotation Yrotation Xrotation
              JOINT LeftForeArm
              {
                OFFSET 28.739307 0.0 -1e-06
                CHANNELS 3 Zrotation Yrotation Xrotation
                JOINT LeftHand
                {
                  OFFSET 27.093981 -4e-06 0.0
                  CHANNELS 3 Zrotation Yrotation Xrotation
                  JOINT LeftHandThumb1
                  {
                    OFFSET 2.276781 3.380274 0.83384
                    CHANNELS 3 Zrotation Yrotation Xrotation
                    JOINT LeftHandThumb2
                    {
                      OFFSET 4.705309 -1e-06 -1e-06
                      CHANNELS 3 Zrotation Yrotation Xrotation
                      JOINT LeftHandThumb3
                      {
                        OFFSET 2.798515 0.0 3e-06
                        CHANNELS 3 Zrotation Yrotation Xrotation
                        JOINT LeftHandThumbEnd
                        {
                          OFFSET 3.180793 4e-06 -4e-06
                          CHANNELS 3 Zrotation Yrotation Xrotation
                        }
                      }
                    }
                  }
                  JOINT LeftHandIndex1
                  {
                    OFFSET 3.247786 2.352677 0.137192
                    CHANNELS 3 Zrotation Yrotation Xrotation
                    JOINT LeftHandIndex2
                    {
                      OFFSET 6.367095 1e-06 0.0
                      CHANNELS 3 Zrotation Yrotation Xrotation
                      JOINT LeftHandIndex3
                      {
                        OFFSET 3.662364 0.0 0.0
                        CHANNELS 3 Zrotation Yrotation Xrotation
                        JOINT LeftHandIndex4
                        {
                          OFFSET 2.329242 4e-06 -4e-06
                          CHANNELS 3 Zrotation Yrotation Xrotation
                          JOINT LeftHandIndexEnd
                          {
                            OFFSET 2.767823 1e-06 0.0
                            CHANNELS 3 Zrotation Yrotation Xrotation
                          }
                        }
                      }
                    }
                  }
                  JOINT LeftHandMiddle1
                  {
                    OFFSET 3.163612 0.945023 -0.406112
                    CHANNELS 3 Zrotation Yrotation Xrotation
                    JOINT LeftHandMiddle2
                    {
                      OFFSET 6.276789 3e-06 0.0
                      CHANNELS 3 Zrotation Yrotation Xrotation
                      JOINT LeftHandMiddle3
                      {
                        OFFSET 4.35652 -1e-06 4e-06
                        CHANNELS 3 Zrotation Yrotation Xrotation
                        JOINT LeftHandMiddle4
                        {
                          OFFSET 2.996877 0.0 8e-06
                          CHANNELS 3 Zrotation Yrotation Xrotation
                          JOINT LeftHandMiddleEnd
                          {
                            OFFSET 2.323256 3e-06 -4e-06
                            CHANNELS 3 Zrotation Yrotation Xrotation
                          }
                        }
                      }
                    }
                  }
                  JOINT LeftHandRing1
                  {
                    OFFSET 2.882606 -0.309162 0.107445
                    CHANNELS 3 Zrotation Yrotation Xrotation
                    JOINT LeftHandRing2
                    {
                      OFFSET 6.033198 0.0 4e-06
                      CHANNELS 3 Zrotation Yrotation Xrotation
                      JOINT LeftHandRing3
                      {
                        OFFSET 4.350578 3e-06 0.0
                        CHANNELS 3 Zrotation Yrotation Xrotation
                        JOINT LeftHandRing4
                        {
                          OFFSET 2.651321 2e-06 -7e-06
                          CHANNELS 3 Zrotation Yrotation Xrotation
                          JOINT LeftHandRingEnd
                          {
                            OFFSET 1.937663 1e-06 -4e-06
                            CHANNELS 3 Zrotation Yrotation Xrotation
                          }
                        }
                      }
                    }
                  }
                  JOINT LeftHandPinky1
                  {
                    OFFSET 2.865315 -1.525436 0.575687
                    CHANNELS 3 Zrotation Yrotation Xrotation
                    JOINT LeftHandPinky2
                    {
                      OFFSET 5.54936 1e-06 -8e-06
                      CHANNELS 3 Zrotation Yrotation Xrotation
                      JOINT LeftHandPinky3
                      {
                        OFFSET 3.070974 0.0 -4e-06
                        CHANNELS 3 Zrotation Yrotation Xrotation
                        JOINT LeftHandPinky4
                        {
                          OFFSET 1.549672 1e-06 0.0
                          CHANNELS 3 Zrotation Yrotation Xrotation
                          JOINT LeftHandPinkyEnd
                          {
                            OFFSET 1.952123 0.0 0.0
                            CHANNELS 3 Zrotation Yrotation Xrotation
                          }
                        }
                      }
                    }
                  }
                }
              }
            }
          }
          JOINT RightShoulder
          {
            OFFSET 23.161716 5.296122 -1.380114
            CHANNELS 3 Zrotation Yrotation Xrotation
            JOINT RightArm
            {
              OFFSET -16.027195 -2e-06 1.1e-05
              CHANNELS 3 Zrotation Yrotation Xrotation
              JOINT RightForeArm
              {
                OFFSET -28.736639 4e-06 2e-06
                CHANNELS 3 Zrotation Yrotation Xrotation
                JOINT RightHand
                {
                  OFFSET -27.133619 6e-06 0.0
                  CHANNELS 3 Zrotation Yrotation Xrotation
                  JOINT RightHandThumb1
                  {
                    OFFSET -2.274328 -3.351035 -0.83067
                    CHANNELS 3 Zrotation Yrotation Xrotation
                    JOINT RightHandThumb2
                    {
                      OFFSET -4.703594 -3e-06 2e-06
                      CHANNELS 3 Zrotation Yrotation Xrotation
                      JOINT RightHandThumb3
                      {
                        OFFSET -2.794935 -4e-06 -3e-06
                        CHANNELS 3 Zrotation Yrotation Xrotation
                        JOINT RightHandThumbEnd
                        {
                          OFFSET -3.183852 4e-06 1e-06
                          CHANNELS 3 Zrotation Yrotation Xrotation
                        }
                      }
                    }
                  }
                  JOINT RightHandIndex1
                  {
                    OFFSET -3.253496 -2.33755 -0.127667
                    CHANNELS 3 Zrotation Yrotation Xrotation
                    JOINT RightHandIndex2
                    {
                      OFFSET -6.344434 0.0 0.0
                      CHANNELS 3 Zrotation Yrotation Xrotation
                      JOINT RightHandIndex3
                      {
                        OFFSET -3.654871 0.0 -8e-06
                        CHANNELS 3 Zrotation Yrotation Xrotation
                        JOINT RightHandIndex4
                        {
                          OFFSET -2.327586 -1e-06 0.0
                          CHANNELS 3 Zrotation Yrotation Xrotation
                          JOINT RightHandIndexEnd
                          {
                            OFFSET -2.770001 3e-06 8e-06
                            CHANNELS 3 Zrotation Yrotation Xrotation
                          }
                        }
                      }
                    }
                  }
                  JOINT RightHandMiddle1
                  {
                    OFFSET -3.168223 -0.944764 0.411762
                    CHANNELS 3 Zrotation Yrotation Xrotation
                    JOINT RightHandMiddle2
                    {
                      OFFSET -6.266691 -1e-06 -4e-06
                      CHANNELS 3 Zrotation Yrotation Xrotation
                      JOINT RightHandMiddle3
                      {
                        OFFSET -4.348901 0.0 0.0
                        CHANNELS 3 Zrotation Yrotation Xrotation
                        JOINT RightHandMiddle4
                        {
                          OFFSET -3.00024 2e-06 -4e-06
                          CHANNELS 3 Zrotation Yrotation Xrotation
                          JOINT RightHandMiddleEnd
                          {
                            OFFSET -2.321477 -4e-06 -4e-06
                            CHANNELS 3 Zrotation Yrotation Xrotation
                          }
                        }
                      }
                    }
                  }
                  JOINT RightHandRing1
                  {
                    OFFSET -2.885654 0.293261 -0.119232
                    CHANNELS 3 Zrotation Yrotation Xrotation
                    JOINT RightHandRing2
                    {
                      OFFSET -6.032835 -1e-06 -4e-06
                      CHANNELS 3 Zrotation Yrotation Xrotation
                      JOINT RightHandRing3
                      {
                        OFFSET -4.33881 0.0 -4e-06
                        CHANNELS 3 Zrotation Yrotation Xrotation
                        JOINT RightHandRing4
                        {
                          OFFSET -2.654903 -4e-06 -4e-06
                          CHANNELS 3 Zrotation Yrotation Xrotation
                          JOINT RightHandRingEnd
                          {
                            OFFSET -1.935122 0.0 4e-06
                            CHANNELS 3 Zrotation Yrotation Xrotation
                          }
                        }
                      }
                    }
                  }
                  JOINT RightHandPinky1
                  {
                    OFFSET -2.866241 1.503904 -0.60527
                    CHANNELS 3 Zrotation Yrotation Xrotation
                    JOINT RightHandPinky2
                    {
                      OFFSET -5.553177 -2e-06 0.0
                      CHANNELS 3 Zrotation Yrotation Xrotation
                      JOINT RightHandPinky3
                      {
                        OFFSET -3.062664 -1e-06 -4e-06
                        CHANNELS 3 Zrotation Yrotation Xrotation
                        JOINT RightHandPinky4
                        {
                          OFFSET -1.546529 2e-06 4e-06
                          CHANNELS 3 Zrotation Yrotation Xrotation
                          JOINT RightHandPinkyEnd
                          {
                            OFFSET -1.952341 0.0 -4e-06
                            CHANNELS 3 Zrotation Yrotation Xrotation
                          }
                        }
                      }
                    }
                  }
                }
              }
            }
          }
        }
      }
    }
    JOINT LeftLeg
    {
      OFFSET -8.443107 2.567604 10.043214
      CHANNELS 3 Zrotation Yrotation Xrotation
      JOINT LeftShin
      {
        OFFSET 43.229198 1e-06 -1e-06
        CHANNELS 3 Zrotation Yrotation Xrotation
        JOINT LeftFoot
        {
          OFFSET 42.298611 1e-06 1e-06
          CHANNELS 3 Zrotation Yrotation Xrotation
          JOINT LeftToeBase
          {
            OFFSET 14.165858 1e-06 0.0
            CHANNELS 3 Zrotation Yrotation Xrotation
            JOINT LeftToeEnd
            {
              OFFSET 6.7141 -0.234461 0.0
              CHANNELS 3 Zrotation Yrotation Xrotation
            }
          }
        }
      }
    }
    JOINT RightLeg
    {
      OFFSET -8.303923 2.592729 -10.047278
      CHANNELS 3 Zrotation Yrotation Xrotation
      JOINT RightShin
      {
        OFFSET -43.369682 0.0 1e-06
        CHANNELS 3 Zrotation Yrotation Xrotation
        JOINT RightFoot
        {
          OFFSET -42.260784 4e-06 2e-06
          CHANNELS 3 Zrotation Yrotation Xrotation
          JOINT RightToeBase
          {
            OFFSET -14.222245 -2e-06 -1e-06
            CHANNELS 3 Zrotation Yrotation Xrotation
            JOINT RightToeEnd
            {
              OFFSET -6.660062 0.232574 -2e-06
              CHANNELS 3 Zrotation Yrotation Xrotation
            }
          }
        }
      }
    }
  }
}
MOTION
Frames: 4
Frame Time: 0.03333333333333333
0.0 0.0 0.0 0.0 -0.0 0.0 25.694853 10.266304 18.128269 -59.388569 -88.385902 -120.603592 -4.365302 -1.921587 0.050129 -12.178753 -0.69131 0.951307 14.008427 -1.250376 -0.056396 -0.020066 3.938065 3.103486 -2.812423 -0.296373 0.792801 -38.429356 1.653857 0.556848 3e-06 -0.0 0.0 -0.184031 -0.158675 0.112698 0.288411 -0.145812 0.206588 0.236929 -0.165125 0.027697 -21.024536 -59.311329 22.777538 19.296942 5.289528 -81.977585 104.324409 -0.317592 -1.212687 -8.72661 22.701563 7.254218 17.636641 -26.322725 52.411182 -19.46666 -14.395602 29.410381 -1e-06 -8.774822 -3e-06 16.76413 -17.446413 5.740714 -0.609777 -1.795654 -3.889325 -4.807088 -11.046807 -2.937849 4e-06 -20.976011 -1e-06 -5.01997 -25.033546 -4.031881 5e-06 -1e-06 1e-06 -10.634535 -5.686968 -3.565586 10.573272 -17.922945 -3.113899 4e-06 -13.821204 0.0 -0.501778 -31.181498 -4.027013 -11.170178 -60.236401 7.64243 -13.982714 -7.150195 -2.875041 13.772733 -8.40149 -3.218241 0.347737 -34.211544 0.771655 -0.963029 -17.733366 2.621022 -0.0 -0.0 -1e-06 -17.346418 -20.095209 -4.201781 21.757557 -1.638376 3.86643 2e-06 -6.338821 1e-06 -1.697591 -22.591738 -6.194005 1e-06 -4e-06 -2e-06 160.271027 -70.774124 25.736147 10.818931 21.593409 -84.669876 84.496803 4.997324 3.21298 -23.049 55.567566 -53.748779 22.182102 -20.375889 49.9333 -16.701805 -16.743517 28.476524 -6e-06 -12.690595 -1e-06 13.925447 -16.333319 3.967514 -0.105919 -1.513855 -4.27588 -5.039038 -5.61287 -2.953556 5e-06 -11.02052 -1e-06 -6.111295 -15.895324 -3.840469 1e-06 -0.0 1e-06 -10.283364 -5.680285 -4.341838 11.028292 -11.302402 -2.372635 -1.384265 -14.238575 -6.320118 -0.625432 -26.924187 -3.827599 -4.35579 -49.449089 -3.059454 -13.708517 -7.363472 -3.720938 18.141144 -14.052736 -3.242674 9e-06 -18.787262 -2e-06 -0.42971 -8.456043 2.555502 -1e-06 0.0 1e-06 -15.923526 -20.094479 -5.473582 30.419193 -7.190827 1.735923 4e-06 -8.162921 -1e-06 -1.861897 -22.861464 -6.167937 0.0 -4e-06 -2e-06 179.760437 -25.337492 -98.148987 9.914767 -14.969282 62.083191 -99.676598 33.288078 -13.916401 -8.798841 1.481744 2.183326 -0.999997 0.0 -0.0 1.474618 -25.878883 -104.018684 2.325404 -12.320291 69.740494 -104.253281 31.357536 -22.669943 -16.051701 0.585085 1.929773 -1.000003 -0.0 -1e-06 
0.0 0.0 0.0 0.0 -0.0 0.0 25.683481 10.381519 18.089537 -58.953297 -88.330589 -120.650703 -4.18833 -2.012811 0.0598 -12.088006 -0.609977 0.920293 13.798398 -1.336002 -0.125623 -0.099389 3.365597 2.893237 -2.80086 -0.128511 0.824107 -38.611782 1.5917 0.590617 5e-06 -0.0 0.0 -0.173238 -0.145845 0.11458 0.291639 -0.135512 0.220959 0.245851 -0.150881 0.018119 -20.654577 -58.996067 22.065393 19.118109 6.837121 -81.692131 102.727547 -0.679456 -1.27462 -8.844153 22.700924 7.200884 17.636625 -26.322718 52.411182 -19.466663 -14.395596 29.410385 -1e-06 -8.774817 -2e-06 16.557154 -17.527031 5.771698 -0.609775 -1.795654 -3.889327 -4.807087 -11.046811 -2.937851 3e-06 -20.976017 -1e-06 -5.019969 -25.03356 -4.031881 6e-06 0.0 1e-06 -10.634529 -5.686969 -3.565588 10.573271 -17.922949 -3.113901 3e-06 -13.821209 -1e-06 -0.501777 -31.181505 -4.027013 -11.043448 -60.247742 7.461637 -13.982711 -7.150198 -2.875041 13.772727 -8.401491 -3.218241 0.347734 -34.211552 0.771651 -0.963027 -17.733366 2.621017 -1e-06 0.0 0.0 -17.346413 -20.095217 -4.201782 21.757553 -1.638374 3.866426 3e-06 -6.338823 0.0 -1.697587 -22.591745 -6.194008 0.0 -2e-06 -3e-06 161.038971 -70.799469 25.463846 6.906688 22.076284 -83.565926 91.340424 5.670956 2.439669 -22.293919 56.420448 -50.832188 22.182116 -20.375879 49.933315 -16.701803 -16.743521 28.476522 -3e-06 -12.690599 -2e-06 14.074008 -16.713175 3.901754 -0.105918 -1.513855 -4.275879 -5.039044 -5.612871 -2.953557 4e-06 -11.020521 -1e-06 -6.111301 -15.895324 -3.840472 0.0 -2e-06 1e-06 -10.283371 -5.680289 -4.341838 11.028291 -11.302402 -2.372632 -1.384271 -14.238574 -6.320121 -0.625436 -26.924179 -3.827603 -4.273352 -49.488514 -3.167153 -13.708524 -7.363475 -3.720939 18.141146 -14.052739 -3.242672 6e-06 -18.787266 -5e-06 -0.429712 -8.456041 2.555504 1e-06 2e-06 -0.0 -15.923534 -20.094482 -5.473587 30.419205 -7.190821 1.735932 2e-06 -8.162925 -1e-06 -1.861904 -22.861464 -6.167944 -0.0 -4e-06 -3e-06 179.750778 -25.283863 -97.21505 10.496675 -15.289771 61.354893 -99.562874 33.290291 -14.081368 -8.53933 1.507792 2.17635 -0.999998 0.0 0.0 1.718176 -25.975843 -105.408325 1.904273 -12.101051 71.214981 -104.092545 30.894291 -22.140079 -15.942189 0.570516 1.944507 -1.000003 -0.0 0.0 
0.0 0.0 0.0 0.0 -0.0 0.0 25.662636 10.478192 18.050259 -57.702797 -88.337051 -121.545715 -3.905862 -2.08726 0.062054 -11.993896 -0.563702 0.856934 13.628186 -1.39337 -0.171719 -0.085973 2.850267 2.642065 -2.772908 0.026914 0.888378 -38.791073 1.526813 0.633302 8e-06 0.0 0.0 -0.172118 -0.140958 0.126077 0.279718 -0.129701 0.238487 0.236447 -0.147318 0.024023 -20.238657 -58.62447 21.402018 18.852352 8.277634 -81.645485 101.405128 -0.979127 -1.359065 -8.911085 22.664738 6.517483 17.636629 -26.322729 52.411201 -19.466661 -14.395597 29.410389 -1e-06 -8.774822 -2e-06 16.32135 -17.524004 5.76048 -0.609777 -1.795653 -3.889327 -4.807086 -11.046809 -2.937851 5e-06 -20.976015 -2e-06 -5.019969 -25.033556 -4.031882 7e-06 -1e-06 1e-06 -10.634529 -5.686969 -3.56559 10.573275 -17.922949 -3.113901 1e-06 -13.821205 0.0 -0.501778 -31.181505 -4.027015 -10.854551 -59.975639 7.211287 -13.982713 -7.150196 -2.875044 13.772733 -8.401491 -3.218241 0.347734 -34.211544 0.771655 -0.963028 -17.733368 2.62102 1e-06 0.0 -1e-06 -17.346413 -20.095217 -4.201785 21.757557 -1.638375 3.866428 3e-06 -6.338823 0.0 -1.697589 -22.591743 -6.194007 0.0 -4e-06 -2e-06 161.676392 -70.789055 25.450195 2.857777 22.63401 -82.185257 98.082687 6.072625 1.640243 -19.494324 56.183723 -45.225681 22.182112 -20.375891 49.933319 -16.701811 -16.743528 28.476528 -2e-06 -12.690601 -2e-06 14.44465 -16.982447 3.7189 -0.105916 -1.513855 -4.27588 -5.039042 -5.612875 -2.953556 5e-06 -11.02052 -2e-06 -6.1113 -15.89533 -3.840473 1e-06 -0.0 1e-06 -10.283367 -5.680288 -4.341839 11.028293 -11.302406 -2.372632 -1.384268 -14.238584 -6.320121 -0.62544 -26.924187 -3.8276 -4.214778 -49.479721 -3.231054 -13.708522 -7.363476 -3.720939 18.141146 -14.052737 -3.242674 7e-06 -18.78727 -2e-06 -0.429711 -8.456044 2.555503 -1e-06 -1e-06 -2e-06 -15.923532 -20.094482 -5.473583 30.419205 -7.190823 1.735927 3e-06 -8.162922 -0.0 -1.861902 -22.861467 -6.167941 -0.0 -4e-06 -3e-06 179.746552 -25.140192 -96.40554 10.971787 -15.623013 60.894783 -99.493393 33.027317 -14.070705 -8.296843 1.524066 2.186195 -0.999998 0.0 -0.0 1.892883 -26.139557 -106.639946 1.605305 -12.034931 72.709908 -103.848923 30.293522 -21.543831 -15.950869 0.56893 1.950728 -1.000003 -0.0 0.0 
0.0 0.0 0.0 0.0 -0.0 0.0 25.643196 10.508394 17.976519 -54.526291 -88.37719 -124.454788 -3.607985 -2.147301 0.054507 -11.91646 -0.553513 0.821914 13.574869 -1.380618 -0.157815 -0.027517 2.467134 2.397116 -2.750898 0.089601 0.964719 -38.841129 1.442878 0.641314 4e-06 -0.0 0.0 -0.177098 -0.151224 0.145587 0.259351 -0.139355 0.260647 0.218251 -0.158234 0.03999 -19.8104 -58.222931 20.807825 18.74012 9.647033 -81.82856 100.138161 -1.129691 -1.448092 -8.836484 22.558208 5.651932 17.636631 -26.322729 52.411186 -19.466661 -14.395596 29.410389 -1e-06 -8.774822 -2e-06 16.183296 -17.400154 5.66924 -0.609777 -1.795653 -3.889329 -4.807089 -11.046811 -2.93785 3e-06 -20.976019 -1e-06 -5.019969 -25.03356 -4.031882 5e-06 -0.0 -1e-06 -10.634537 -5.68697 -3.565588 10.573275 -17.922951 -3.113901 2e-06 -13.821206 1e-06 -0.501777 -31.181501 -4.027014 -10.707607 -59.578407 6.960168 -13.982712 -7.150198 -2.875043 13.772733 -8.401492 -3.218241 0.347733 -34.211544 0.771654 -0.963029 -17.73337 2.62102 -0.0 -1e-06 1e-06 -17.346416 -20.095217 -4.201784 21.757557 -1.638374 3.866428 2e-06 -6.338823 1e-06 -1.69759 -22.591743 -6.194006 -1e-06 -7e-06 -4e-06 162.320618 -70.762138 25.431473 -0.455778 23.562756 -80.900902 103.343788 6.174737 0.868071 -16.007032 55.230892 -38.688305 22.182114 -20.375895 49.933308 -16.701811 -16.743525 28.476522 -4e-06 -12.690597 2e-06 14.850797 -17.031404 3.436231 -0.105919 -1.513854 -4.275879 -5.039039 -5.612872 -2.953555 4e-06 -11.020523 -1e-06 -6.111296 -15.89533 -3.840469 1e-06 -2e-06 -0.0 -10.283371 -5.680287 -4.341839 11.028295 -11.302402 -2.37263 -1.384269 -14.238577 -6.320121 -0.625437 -26.924183 -3.827599 -4.118585 -49.226284 -3.343729 -13.708519 -7.363473 -3.720937 18.141146 -14.052738 -3.242673 8e-06 -18.787266 -3e-06 -0.429711 -8.456041 2.555504 -0.0 0.0 -2e-06 -15.92353 -20.094479 -5.47358 30.419205 -7.190827 1.735924 3e-06 -8.162922 -0.0 -1.861902 -22.861464 -6.167939 0.0 -3e-06 0.0 179.710236 -25.035114 -95.785896 11.242103 -15.819724 60.692802 -99.320999 32.945473 -13.956916 -8.079948 1.531941 2.201807 -0.999997 0.0 0.0 2.007304 -26.315025 -107.86145 1.3214 -12.098107 74.406342 -103.546906 29.581499 -20.929949 -16.009956 0.577145 1.952806 -1.000004 -0.0 0.0 
